<svg width="309" height="233" viewBox="0 0 309 233" fill="none" xmlns="http://www.w3.org/2000/svg">
<g id="Instagram post _Isometric 1">
<g id="Group">
<g id="Layer 2">
<path id="Vector" d="M150.081 224.175L11.2476 142.082C6.82888 139.601 3.0359 135.52 7.34645 132.854L146.682 52.4763C148.776 51.1779 151.951 50.3278 154.075 51.5643L299.815 136.223C304.234 138.789 305.029 145.961 300.587 148.535L168.405 224.043C165.626 225.659 162.474 226.521 159.261 226.544C156.047 226.567 152.883 225.75 150.081 224.175V224.175Z" fill="#7000FF"/>
<path id="Vector_2" style="mix-blend-mode:multiply" d="M168.83 139.338L99.4748 179.241L76.1762 168.367L149.958 132.22"/>
<path id="Vector_3" style="mix-blend-mode:multiply" d="M267.702 147.507L230.661 168.823L215.443 158.644L248.83 140.389"/>
<path id="Vector_4" style="mix-blend-mode:multiply" d="M187.656 189.929L150.607 211.245L135.388 201.066L178.015 180.021"/>
<path id="Vector_5" d="M116.57 49.8563L174.168 16.8089V135.056L116.57 168.367V49.8563Z" fill="#FFED46"/>
<path id="Vector_6" d="M257.289 125.001C252.237 124.561 246.914 123.031 243.175 119.591V134.585C243.175 138.711 244.814 142.668 247.73 145.586C250.646 148.503 254.601 150.143 258.726 150.143C262.85 150.143 266.805 148.503 269.721 145.586C272.638 142.668 274.276 138.711 274.276 134.585V119.336C268.977 121.5 262.951 125.512 257.289 125.001Z" fill="#FFED46"/>
<path id="Vector_7" d="M258.726 127.737C267.314 127.737 274.276 124.045 274.276 119.491C274.276 114.937 267.314 111.245 258.726 111.245C250.137 111.245 243.175 114.937 243.175 119.491C243.175 124.045 250.137 127.737 258.726 127.737Z" fill="#02FFA4"/>
<path id="Vector_8" d="M258.726 120.89C258.726 120.89 248.15 119.344 245.354 102.218C245.354 102.225 254.377 107.226 258.726 120.89Z" fill="#02FFA4"/>
<path id="Vector_9" d="M260.286 118.71C260.286 118.71 248.158 96.9312 260.286 82.301C263.987 94.155 263.987 106.856 260.286 118.71V118.71Z" fill="#02FFA4"/>
<path id="Vector_10" d="M258.726 105.023C258.726 105.023 248.15 103.477 245.354 86.3507C245.354 86.3585 254.377 91.328 258.726 105.023Z" fill="#02FFA4"/>
<path id="Vector_11" d="M260.016 111.994C260.016 111.994 257.366 101.638 272.067 92.4409C272.067 92.4486 270.954 102.689 260.016 111.994Z" fill="#02FFA4"/>
<path id="Vector_12" d="M258.726 127.737C267.314 127.737 274.276 124.045 274.276 119.491C274.276 114.937 267.314 111.245 258.726 111.245C250.137 111.245 243.175 114.937 243.175 119.491C243.175 124.045 250.137 127.737 258.726 127.737Z" fill="#146666"/>
<path id="Vector_13" d="M258.726 120.89C258.726 120.89 248.15 119.344 245.354 102.218C245.354 102.225 254.377 107.226 258.726 120.89Z" fill="#02FFA4"/>
<path id="Vector_14" d="M260.286 118.71C260.286 118.71 248.158 96.9312 260.286 82.301C263.987 94.155 263.987 106.856 260.286 118.71V118.71Z" fill="#02FFA4"/>
<path id="Vector_15" d="M258.726 105.023C258.726 105.023 248.15 103.477 245.354 86.3507C245.354 86.3585 254.377 91.328 258.726 105.023Z" fill="#02FFA4"/>
<path id="Vector_16" d="M260.016 111.994C260.016 111.994 257.366 101.638 272.067 92.4409C272.067 92.4486 270.954 102.689 260.016 111.994Z" fill="#02FFA4"/>
<path id="Vector_17" d="M121.182 80.3688V117.103L169.556 89.2644V52.515L121.182 80.3688Z" fill="white"/>
<path id="Vector_18" d="M121.182 117.103L132.77 91.4593C133.053 90.8292 133.457 90.2611 133.96 89.7875C134.463 89.3139 135.054 88.9442 135.7 88.6994C136.345 88.4546 137.033 88.3396 137.723 88.361C138.413 88.3823 139.093 88.5396 139.722 88.8239L145.408 91.3511L156.501 72.6634C156.761 72.2259 157.11 71.8482 157.526 71.5547C157.942 71.2613 158.415 71.0588 158.914 70.9604C159.413 70.8619 159.927 70.8698 160.423 70.9835C160.919 71.0971 161.386 71.314 161.792 71.62L169.602 77.5015V89.2644L121.182 117.103Z" fill="#27D9D3"/>
<path id="Vector_19" d="M134.697 62.4984C136.14 57.7132 134.691 53.0434 131.46 52.0681C128.229 51.0928 124.44 54.1814 122.997 58.9666C121.554 63.7518 123.003 68.4216 126.234 69.3968C129.464 70.3721 133.253 67.2836 134.697 62.4984Z" fill="white"/>
<path id="Vector_20" d="M131.5 59.3146C132.184 57.0466 131.497 54.8332 129.965 54.3709C128.434 53.9085 126.637 55.3722 125.953 57.6402C125.27 59.9082 125.957 62.1215 127.488 62.5839C129.02 63.0463 130.816 61.5826 131.5 59.3146Z" fill="#02FFA4"/>
<path id="Vector_21" d="M133.503 65.3058C133.588 65.1667 132.592 60.8696 129.934 61.0783C125.508 61.426 124.311 65.6149 124.527 68.4127C125.198 69.0119 126.032 69.3986 126.923 69.5238C127.814 69.649 128.722 69.5071 129.533 69.116C131.236 68.3134 132.631 66.9753 133.503 65.3058V65.3058Z" fill="#02FFA4"/>
<path id="Vector_22" d="M138.509 53.8984L156.926 43.2947C157.179 43.1343 157.361 42.8816 157.432 42.59C157.503 42.2984 157.458 41.9905 157.307 41.7311C157.156 41.4718 156.91 41.2812 156.622 41.1995C156.333 41.1178 156.024 41.1513 155.759 41.293L137.335 51.9276C137.119 52.1032 136.973 52.3507 136.925 52.625C136.876 52.8992 136.928 53.1817 137.07 53.421C137.213 53.6602 137.437 53.8401 137.701 53.9278C137.965 54.0154 138.252 54.005 138.509 53.8984V53.8984Z" fill="white"/>
<path id="Vector_23" d="M138.988 59.5866L160.68 47.1049C160.934 46.9445 161.115 46.6918 161.186 46.4002C161.257 46.1086 161.213 45.8007 161.062 45.5413C160.91 45.282 160.665 45.0914 160.376 45.0097C160.087 44.928 159.778 44.9615 159.513 45.1032L137.822 57.5849C137.568 57.7454 137.387 57.998 137.315 58.2897C137.244 58.5813 137.289 58.8892 137.44 59.1485C137.591 59.4079 137.837 59.5984 138.126 59.6801C138.414 59.7619 138.724 59.7283 138.988 59.5866Z" fill="white"/>
<path id="Vector_24" d="M163.152 28.1931L181.321 17.7054C181.739 17.464 182.213 17.3369 182.696 17.3368C183.178 17.3367 183.652 17.4636 184.07 17.7048C184.488 17.946 184.835 18.293 185.077 18.7109C185.319 19.1289 185.446 19.603 185.446 20.0858V31.8873C185.447 32.3663 185.323 32.8372 185.085 33.2533C184.848 33.6695 184.507 34.0165 184.094 34.26L165.925 44.9641C165.507 45.211 165.032 45.3428 164.546 45.3462C164.061 45.3496 163.583 45.2245 163.162 44.9835C162.741 44.7425 162.391 44.3943 162.147 43.9742C161.904 43.554 161.776 43.077 161.777 42.5915V30.5812C161.776 30.0973 161.903 29.6218 162.144 29.2025C162.385 28.7832 162.733 28.435 163.152 28.1931V28.1931Z" fill="#FA80F4"/>
<path id="Vector_25" d="M172.237 40.6284L175.52 44.5854L178.208 37.0191" fill="#FA80F4"/>
<path id="Vector_26" d="M173.689 30.4653C173.689 30.4653 171.495 26.8483 169.27 29.5919C168.011 31.1377 170.298 35.9062 173.573 36.4008C176.539 36.8491 180.711 26.6783 176.555 26.5701C173.859 26.4928 173.689 30.4653 173.689 30.4653Z" fill="white"/>
<path id="Vector_27" d="M126.69 121.949C126.69 121.949 124.465 118.347 122.271 121.075C121.012 122.621 123.299 127.39 126.574 127.884C129.54 128.332 133.712 118.162 129.556 118.053C126.852 117.976 126.69 121.949 126.69 121.949Z" fill="#FA80F4"/>
<path id="Vector_28" d="M141.863 117.692C142.108 115.507 140.403 113.522 138.054 113.259C135.705 112.995 133.602 114.552 133.357 116.737C133.112 118.922 134.818 120.906 137.167 121.17C139.516 121.433 141.618 119.876 141.863 117.692Z" fill="#FA80F4"/>
<path id="Vector_29" d="M138.231 119.8C138.061 120.063 135.141 122.946 135.141 122.977V118.046" fill="#FA80F4"/>
<path id="Vector_30" d="M123.546 137.962L161.089 117.002C162.395 116.276 161.228 114.274 159.923 115.001L122.379 135.961C121.074 136.687 122.24 138.689 123.546 137.962Z" fill="white"/>
<path id="Vector_31" d="M123.546 143.705L161.089 122.745C162.395 122.018 161.228 120.017 159.923 120.743L122.379 141.703C121.074 142.429 122.24 144.431 123.546 143.705Z" fill="white"/>
<path id="Vector_32" d="M123.051 149.864L160.603 128.866C161.908 128.139 160.742 126.138 159.436 126.864L121.893 147.824C120.587 148.55 121.754 150.552 123.059 149.826L123.051 149.864Z" fill="white"/>
<path id="Vector_33" d="M123.051 155.607L160.595 134.647C161.9 133.92 160.734 131.919 159.428 132.645L121.885 153.597C120.579 154.324 121.746 156.325 123.051 155.599V155.607Z" fill="white"/>
<path id="Vector_34" d="M151.557 99.8835L174.23 86.7913C174.751 86.4899 175.343 86.3314 175.946 86.3315C176.548 86.3317 177.14 86.4906 177.661 86.7922C178.183 87.0938 178.616 87.5276 178.916 88.0497C179.217 88.5719 179.375 89.1641 179.375 89.7668V104.49C179.375 105.088 179.219 105.676 178.922 106.195C178.625 106.714 178.198 107.147 177.683 107.45L155.01 120.813C154.489 121.121 153.895 121.286 153.289 121.29C152.684 121.295 152.088 121.139 151.562 120.838C151.036 120.537 150.599 120.103 150.296 119.578C149.992 119.054 149.833 118.458 149.834 117.853V102.859C149.834 102.255 149.994 101.662 150.296 101.14C150.599 100.617 151.033 100.184 151.557 99.8835Z" fill="#FA80F4"/>
<path id="Vector_35" d="M162.889 115.403L166.991 120.333L170.344 110.897" fill="#FA80F4"/>
<path id="Vector_36" d="M157.474 108.176C157.22 107.906 157.076 107.55 157.072 107.179C157.074 106.896 157.145 106.617 157.28 106.368C157.414 106.118 157.609 105.906 157.845 105.75C157.72 105.494 157.682 105.205 157.736 104.926C157.791 104.647 157.935 104.394 158.146 104.204C159.158 103.376 160.32 102.752 161.568 102.364C161.661 102.308 161.745 102.238 161.816 102.156C161.409 100.674 161.229 99.1392 161.283 97.6036C161.265 97.3289 161.305 97.0537 161.4 96.7954C161.495 96.5372 161.643 96.3016 161.834 96.1038C162.026 95.9059 162.256 95.7502 162.511 95.6465C162.766 95.5427 163.039 95.4933 163.314 95.5014C163.314 95.5014 163.708 98.8865 164.396 99.9376C164.595 100.331 164.927 100.64 165.333 100.812C165.739 100.983 166.192 101.005 166.613 100.873C167.069 100.687 170.591 99.0643 172.02 98.4074V105.108L165.84 108.578C165.778 109.73 162.65 110.827 160.819 111.306C160.704 111.445 160.551 111.547 160.379 111.6C159.75 111.835 159.064 111.867 158.417 111.693C158.194 111.612 158 111.465 157.863 111.272C157.725 111.079 157.648 110.848 157.644 110.611C157.459 110.546 157.293 110.437 157.158 110.295C157.024 110.152 156.926 109.98 156.872 109.792C156.806 109.493 156.828 109.182 156.935 108.895C157.042 108.609 157.229 108.359 157.474 108.176Z" fill="white"/>
<path id="Vector_37" d="M172.337 97.7118L168.729 99.3657V107.829L172.337 105.811V97.7118Z" fill="#E2D1CF"/>
<path id="Vector_38" d="M183.044 187.68L185.979 186.869L185.516 183.291C185.516 183.291 182.31 183.816 183.044 187.68Z" fill="#42210B"/>
<path id="Vector_39" d="M187.045 177.262C187.045 177.262 188.081 189.365 187.818 189.512C187.555 189.659 184.728 189.898 184.728 189.682C184.728 189.466 184.558 184.172 184.558 184.172C184.558 184.172 183.144 186.49 183.075 187.68C183.075 187.68 179.699 185.756 179.073 184.21C178.447 182.664 180.518 176.203 181.306 175.856" fill="#7F252B"/>
<path id="Vector_40" d="M175.767 194.026L179.096 190.494L176.902 187.75C176.902 187.75 174.902 192.24 175.767 194.026Z" fill="#42210B"/>
<path id="Vector_41" d="M180.711 180.021L182.256 194.551C181.292 194.896 180.299 195.155 179.289 195.324C178.661 195.105 178.058 194.82 177.49 194.474L176.933 189.628C176.933 189.628 175.496 191.065 175.751 194.018C175.751 193.817 173.434 193.059 173.164 192.92C172.237 192.518 171.348 192.034 170.506 191.475C169.625 190.865 166.342 188.152 168.104 187.078C169.602 186.158 174.461 186.598 174.461 186.598L174.531 180.601" fill="#7F252B"/>
<path id="Vector_42" d="M186.52 127.985C186.508 127.933 186.509 127.879 186.521 127.828C186.533 127.776 186.556 127.728 186.59 127.687C186.624 127.646 186.666 127.613 186.714 127.591C186.762 127.569 186.815 127.558 186.868 127.56C186.539 126.285 185.987 125.079 185.238 123.997L171.178 122.343C171.178 122.343 168.359 132.39 167.269 149.71C166.427 163.134 173.009 183.097 173.009 183.097C173.009 183.097 179.823 184.829 183.098 181.459L182.967 178.568C184.664 178.555 186.358 178.415 188.034 178.151C189.726 161.48 188.444 144.57 186.52 127.985Z" fill="#FBB03B"/>
<path id="Vector_43" d="M183.492 180.647L181.731 168.204C181.167 164.24 180.301 160.167 180.286 156.14C180.271 152.113 181.646 148.52 182.31 144.686C182.943 140.976 183.107 137.2 182.797 133.449C182.727 132.575 181.476 132.568 181.545 133.449C181.895 137.645 181.634 141.87 180.773 145.992C180 149.679 178.896 153.172 179.05 157.006C179.205 160.839 179.977 164.734 180.518 168.598L182.279 181.041C182.41 181.915 183.615 181.544 183.492 180.647Z" fill="#42210B"/>
<path id="Vector_44" d="M163.515 118.424C162.897 118.231 162.279 118.053 161.653 117.883H161.599C159.836 117.24 158.029 116.724 156.192 116.338L152.669 113.911C152.59 113.846 152.496 113.803 152.395 113.786C152.294 113.769 152.191 113.778 152.095 113.813C151.999 113.848 151.914 113.908 151.848 113.986C151.782 114.064 151.737 114.158 151.719 114.259C151.518 114.846 152.754 116.114 153.164 116.461L153.318 116.593C153.395 116.662 153.72 117.002 153.82 116.987C152.615 117.06 151.44 117.392 150.375 117.961C150.279 118.016 150.199 118.096 150.143 118.193C150.088 118.289 150.058 118.398 150.058 118.509C150.058 118.621 150.088 118.73 150.143 118.826C150.199 118.923 150.279 119.003 150.375 119.058C150.593 119.158 150.83 119.213 151.07 119.22L150.946 119.267C150.174 119.591 149.795 120.225 150.491 120.913C150.55 120.973 150.621 121.02 150.699 121.052C150.767 121.12 150.851 121.168 150.944 121.191C151.036 121.214 151.133 121.211 151.225 121.184V121.299C151.171 121.424 151.149 121.559 151.159 121.694C151.17 121.828 151.214 121.958 151.286 122.072C151.358 122.172 151.448 122.257 151.553 122.322C151.657 122.388 151.773 122.431 151.894 122.451C152.016 122.472 152.14 122.468 152.259 122.44C152.379 122.412 152.492 122.36 152.592 122.289L152.885 122.181C153.202 122.953 154.083 122.953 154.848 122.691C155.612 122.428 156.532 121.98 157.374 121.67L159.9 122.652C160.58 122.915 161.792 123.711 162.534 123.425C163.276 123.139 162.974 121.933 162.21 122.204C162.372 122.15 162.04 122.119 161.939 122.08L161.244 121.81C161.879 122.062 162.554 122.195 163.237 122.204C163.36 122.199 163.479 122.159 163.58 122.088C163.681 122.017 163.759 121.919 163.806 121.805C163.852 121.69 163.865 121.565 163.842 121.444C163.819 121.323 163.762 121.211 163.677 121.122C163.317 120.773 162.927 120.458 162.511 120.179C162.557 120.038 162.557 119.887 162.511 119.746H162.596C162.745 119.769 162.899 119.739 163.028 119.661L163.167 119.7C163.971 119.885 164.288 118.664 163.515 118.424Z" fill="#FE6162"/>
<path id="Vector_45" d="M180.765 101.878C180.765 101.878 172.94 101.877 170.236 106.801C167.965 110.935 168.39 117.837 168.39 117.837L159.374 117.126C158.596 117.506 157.974 118.147 157.619 118.938C157.263 119.728 157.196 120.619 157.428 121.454C157.775 123.224 166.698 124.043 171.649 125.264C176.601 126.485 185.493 126.81 186.899 123.865C188.305 120.921 188.127 108.887 186.489 105.433C184.851 101.978 180.765 101.878 180.765 101.878Z" fill="#02FFA4"/>
<path id="Vector_46" d="M173.565 94.3112C173.565 94.3112 173.156 100.262 174.971 101.638C176.787 103.014 179.784 100.741 179.784 100.741" fill="#FE6162"/>
<path id="Vector_47" d="M175.048 91.328C174.251 91.9477 173.631 92.7659 173.249 93.7006C171.75 97.449 175.782 102.102 179.374 102.82L181.244 102.233C181.244 102.233 183.716 98.5928 183.716 96.5525C183.736 94.5806 182.981 92.6796 181.615 91.2584C179.699 89.4499 176.949 89.8363 175.048 91.328Z" fill="#534741"/>
<path id="Vector_48" d="M179.374 102.828C179.374 102.828 172.638 122.25 177.714 125.465C182.789 128.68 192.7 125.751 190.761 120.936C188.822 116.121 181.244 102.241 181.244 102.241" fill="#534741"/>
</g>
</g>
</g>
</svg>
